<?xml version="1.0" encoding="utf-8"?>
<!-- Generator: Adobe Illustrator 22.0.1, SVG Export Plug-In . SVG Version: 6.00 Build 0)  -->
<svg version="1.1" id="Layer_1" xmlns="http://www.w3.org/2000/svg" xmlns:xlink="http://www.w3.org/1999/xlink" x="0px" y="0px"
	 viewBox="0 0 576 320" style="enable-background:new 0 0 576 320;" xml:space="preserve">
<path d="M327.1,0c-90,0-168.5,54.8-212.3,101.6L27.5,35.6C15.4,26.4-2.7,36.2,0.4,50.2L24.5,160L0.4,269.8
	c-3.1,14.1,15,23.8,27.1,14.7l87.3-66C158.6,265.2,237.1,320,327.1,320C464.6,320,576,192,576,160S464.6,0,327.1,0z M414.5,184
	c-13.3,0-24-10.8-24-24c0-13.3,10.8-24,24-24c13.3,0,24,10.7,24,24C438.5,173.3,427.8,184,414.5,184z"/>
</svg>
