<?xml version="1.0" encoding="utf-8"?>
<!-- Generator: Adobe Illustrator 22.0.1, SVG Export Plug-In . SVG Version: 6.00 Build 0)  -->
<svg version="1.1" id="Layer_1" xmlns="http://www.w3.org/2000/svg" xmlns:xlink="http://www.w3.org/1999/xlink" x="0px" y="0px"
	 viewBox="0 0 93.5 51.2" style="enable-background:new 0 0 93.5 51.2;" xml:space="preserve">
<style type="text/css">
	.st0{fill:#FFFFFF;}
</style>
<path d="M85.2,29c0-0.2,0-0.3,0-0.5c0-9.8-7.9-17.7-17.7-17.7c-1.8,0-3.6,0.3-5.2,0.8c-0.4,0.1-0.7,0.2-1.1,0.4
	C57,4.8,49.2,0,40.3,0c-10.8,0-20,7.1-23.1,16.8C7.7,16.9,0,24.6,0,34.1c0,9.5,7.7,17.3,17.3,17.3h64.8c6.3,0,11.4-5.1,11.4-11.4
	C93.5,34.7,90,30.3,85.2,29z M68.6,41.9c-1.4,0-2.5-1.1-2.5-2.5s1.1-2.5,2.5-2.5c1.4,0,2.5,1.1,2.5,2.5S70,41.9,68.6,41.9z M81.1,46
	c-0.5,0-1-0.5-1-1c0-1.6-1.3-2.9-2.9-2.9c-1.6,0-2.9,1.3-2.9,2.9c0,0.5-0.4,1-1,1c-0.6,0-1-0.5-1-1c0-2.7,2.2-4.9,4.9-4.9
	s4.9,2.2,4.9,4.9C82.1,45.5,81.6,46,81.1,46z M85.8,41.9c-1.4,0-2.5-1.1-2.5-2.5s1.1-2.5,2.5-2.5c1.4,0,2.5,1.1,2.5,2.5
	S87.2,41.9,85.8,41.9z"/>
<path d="M594.6,390.3c0,1.4-1.1,2.5-2.5,2.5c-1.4,0-2.5-1.1-2.5-2.5s1.1-2.5,2.5-2.5C593.5,387.8,594.6,388.9,594.6,390.3z"/>
<path d="M605.5,395.8c0,0.5-0.5,1-1,1s-1-0.5-1-1c0-1.6-1.3-2.9-2.9-2.9c-1.6,0-2.9,1.3-2.9,2.9c0,0.5-0.4,1-1,1c-0.6,0-1-0.5-1-1
	c0-2.7,2.2-4.9,4.9-4.9S605.5,393.2,605.5,395.8z"/>
<path d="M611.8,390.3c0,1.4-1.1,2.5-2.5,2.5c-1.4,0-2.5-1.1-2.5-2.5s1.1-2.5,2.5-2.5C610.7,387.8,611.8,388.9,611.8,390.3z"/>
<g>
	<path class="st0" d="M594.6,390.3c0,1.4-1.1,2.5-2.5,2.5c-1.4,0-2.5-1.1-2.5-2.5s1.1-2.5,2.5-2.5
		C593.5,387.8,594.6,388.9,594.6,390.3z"/>
</g>
<g>
	<path class="st0" d="M611.8,390.3c0,1.4-1.1,2.5-2.5,2.5c-1.4,0-2.5-1.1-2.5-2.5s1.1-2.5,2.5-2.5
		C610.7,387.8,611.8,388.9,611.8,390.3z"/>
</g>
<g>
	<path class="st0" d="M605.5,395.8c0,0.5-0.5,1-1,1s-1-0.5-1-1c0-1.6-1.3-2.9-2.9-2.9c-1.6,0-2.9,1.3-2.9,2.9c0,0.5-0.4,1-1,1
		c-0.6,0-1-0.5-1-1c0-2.7,2.2-4.9,4.9-4.9S605.5,393.2,605.5,395.8z"/>
</g>
</svg>
